<svg width="48" height="48" viewBox="0 0 48 48" fill="none" xmlns="http://www.w3.org/2000/svg">
  <!-- Shield background -->
  <path d="M24 4L6 12V22C6 32.5 12.5 42 24 44C35.5 42 42 32.5 42 22V12L24 4Z" fill="#1a3a6e"/>
  <path d="M24 4L6 12V22C6 32.5 12.5 42 24 44C35.5 42 42 32.5 42 22V12L24 4Z" fill="url(#gradient)" opacity="0.3"/>
  
  <!-- Ballot box -->
  <rect x="14" y="18" width="20" height="16" rx="2" fill="white" opacity="0.95"/>
  <rect x="14" y="18" width="20" height="3" rx="1" fill="#f4a261"/>
  
  <!-- Checkmark -->
  <path d="M20 26L22.5 28.5L28 23" stroke="#2d6a4f" stroke-width="2.5" stroke-linecap="round" stroke-linejoin="round"/>
  
  <!-- Lock icon (security) -->
  <circle cx="24" cy="14" r="3" fill="#e63946"/>
  <rect x="22" y="13" width="4" height="4" rx="1" fill="#e63946"/>
  <path d="M22 15V13C22 11.9 22.9 11 24 11C25.1 11 26 11.9 26 13V15" stroke="white" stroke-width="1.5" stroke-linecap="round"/>
  
  <!-- Gradient definition -->
  <defs>
    <linearGradient id="gradient" x1="24" y1="4" x2="24" y2="44" gradientUnits="userSpaceOnUse">
      <stop offset="0%" stop-color="white" stop-opacity="0.2"/>
      <stop offset="100%" stop-color="white" stop-opacity="0"/>
    </linearGradient>
  </defs>
</svg>
